<svg width="158" height="52" viewBox="0 0 158 52" fill="none" xmlns="http://www.w3.org/2000/svg">
<path d="M14.0081 36.533C14.1314 36.5843 14.2577 36.6283 14.3861 36.6649C15.3977 36.8607 16.3452 37.3064 17.1433 37.9618C17.9415 38.6172 18.5654 39.4619 18.9589 40.42C19.2272 41.0669 19.3789 41.7567 19.407 42.457C19.4924 44.0278 19.3095 45.5249 18.4925 46.9177C17.8223 48.0279 16.8428 48.9154 15.6756 49.4702C13.9197 50.3537 12.0174 50.6421 10.0968 50.8108C7.78474 50.9918 5.46166 50.9764 3.15219 50.7648C2.49371 50.7126 1.83827 50.6666 1.17979 50.6083C0.966357 50.5946 0.755427 50.5544 0.551787 50.4887C0.106699 50.3322 0 50.1819 0 49.6941C0 48.3136 0 46.932 0 45.5494V24.9948C0 24.3168 0.213398 24.0745 0.89932 23.9855C1.64012 23.8935 2.38396 23.7922 3.13085 23.7339C5.45994 23.5468 7.79208 23.4026 10.1242 23.6818C11.932 23.8996 13.6605 24.3444 15.1635 25.4458C15.8176 25.9174 16.3683 26.5195 16.781 27.2146C17.1938 27.9098 17.4599 28.683 17.5627 29.4862C17.7218 30.4255 17.7084 31.3863 17.523 32.3209C17.2888 33.6572 16.5463 34.849 15.4531 35.6433C15.1207 35.8505 14.7744 36.034 14.4166 36.1925C14.2794 36.26 14.1361 36.3152 13.9989 36.3735L14.0081 36.533ZM4.46307 43.1688C4.46307 44.7457 4.46307 46.3256 4.46307 47.9056C4.46307 48.3933 4.5027 48.4332 4.97522 48.4363C6.32878 48.4363 7.68233 48.4608 9.03893 48.4516C9.9851 48.434 10.9181 48.2254 11.7826 47.8381C12.4171 47.5671 12.9749 47.1419 13.4059 46.6006C13.8369 46.0592 14.1276 45.4187 14.2519 44.7365C14.4531 43.7495 14.4624 42.7327 14.2794 41.7422C14.2001 41.1907 14.0097 40.6613 13.7198 40.1865C13.4299 39.7117 13.0467 39.3015 12.5935 38.9812C11.7716 38.3947 10.7986 38.0601 9.79192 38.0179C8.13961 37.9166 6.4812 37.9074 4.82585 37.8553C4.78148 37.8471 4.73586 37.8489 4.69228 37.8606C4.6487 37.8723 4.60825 37.8936 4.57384 37.923C4.53942 37.9523 4.51191 37.989 4.49329 38.0303C4.47466 38.0717 4.46538 38.1167 4.46612 38.1621C4.45846 38.2867 4.45846 38.4117 4.46612 38.5363L4.46307 43.1688ZM4.46307 30.7317C4.46307 31.6521 4.46307 32.5724 4.46307 33.4744C4.46307 34.0297 4.46307 34.5849 4.46307 35.1402C4.46307 35.5145 4.55757 35.6035 4.89901 35.5973C6.16111 35.5758 7.4293 35.5973 8.68835 35.5053C9.27361 35.4617 9.84959 35.3336 10.3986 35.1249C10.8699 34.952 11.296 34.6735 11.6445 34.3105C11.9931 33.9475 12.2551 33.5095 12.4106 33.0295C12.8175 31.9107 12.9114 30.701 12.6819 29.5322C12.5771 28.8743 12.3101 28.2533 11.9054 27.726C11.5006 27.1987 10.9711 26.7818 10.365 26.5134C9.38861 26.0691 8.32709 25.846 7.25553 25.86C6.52693 25.86 5.79528 25.8906 5.06668 25.9213C4.45697 25.9459 4.45697 25.9612 4.45697 26.5901L4.46307 30.7317Z" fill="#54565A"/>
<path d="M90.5417 32.9712C90.5417 35.3948 90.5905 37.8184 90.5417 40.242C90.5104 42.2443 90.0046 44.21 89.0662 45.9759C88.0647 47.9275 86.3636 49.4233 84.3074 50.1604C82.4271 50.8027 80.4377 51.0583 78.4573 50.912C77.0105 50.8666 75.5805 50.5859 74.2229 50.0806C72.5473 49.4266 71.1162 48.2631 70.1287 46.752C69.3041 45.4668 68.7404 44.03 68.4703 42.5245C68.1258 40.8188 68.141 39.0977 68.1258 37.3736C68.0953 33.3854 68.0862 29.3696 68.0679 25.366C68.0679 24.3322 68.1593 24.2401 69.2019 24.2432C69.8116 24.2432 70.4213 24.2432 71.0311 24.2432C71.4442 24.2386 71.8498 24.3547 72.1986 24.5776C72.4087 24.6994 72.589 24.8671 72.7262 25.0684C72.8633 25.2696 72.9539 25.4992 72.9913 25.7403C73.0472 26.1305 73.0757 26.5241 73.0766 26.9184C73.101 31.1704 73.1132 35.4255 73.1376 39.6806C73.1049 41.3174 73.3387 42.9486 73.8296 44.5094C74.2991 45.8961 74.9881 47.1355 76.2684 47.9209C76.9709 48.3522 77.7544 48.6324 78.5698 48.7438C79.3852 48.8552 80.2146 48.7954 81.0059 48.5682C83.0697 48.0344 84.2434 46.5894 84.9111 44.6444C85.4265 43.035 85.6687 41.3496 85.6275 39.6591C85.6275 35.3887 85.5756 31.1152 85.5543 26.8417C85.5481 26.502 85.5695 26.1624 85.6183 25.8262C85.6702 25.4289 85.8542 25.061 86.1404 24.7825C86.4266 24.5039 86.7981 24.3312 87.1944 24.2923C88.109 24.2217 89.0479 24.2401 89.9747 24.2555C90.3497 24.2555 90.5082 24.461 90.5509 24.8384C90.5509 24.9611 90.5509 25.0899 90.5509 25.2157C90.5509 27.7988 90.5509 30.383 90.5509 32.9682L90.5417 32.9712Z" fill="#54565A"/>
<path d="M129.484 37.8553H122.515C122.07 37.8553 121.963 37.9473 121.978 38.3799C122.005 40.2121 122.262 42.0335 122.744 43.8008C123.005 44.7948 123.449 45.7311 124.051 46.5618C125.271 48.1786 126.954 48.7676 128.905 48.5927C130.875 48.4203 132.736 47.6048 134.203 46.2704C134.299 46.1864 134.401 46.1095 134.508 46.0403C134.788 45.8624 135.02 45.8531 135.224 46.1108C135.59 46.5739 135.931 47.0551 136.249 47.5527C136.407 47.8012 136.227 48.0098 136.038 48.1663C135.59 48.5218 135.122 48.8506 134.636 49.1511C131.598 50.9311 127.998 51.4734 124.576 50.6666C121.939 50.0868 119.939 48.5467 118.54 46.2182C117.774 44.8992 117.258 43.4494 117.015 41.9416C116.476 39.0768 116.457 36.1373 116.96 33.2657C117.317 31.0208 118.265 28.9129 119.704 27.1607C120.865 25.7837 122.395 24.7728 124.112 24.2493C126.215 23.5693 128.466 23.5065 130.603 24.0683C131.787 24.3569 132.891 24.9121 133.83 25.6922C134.77 26.4724 135.522 27.457 136.029 28.5719C136.762 30.0935 137.207 31.7395 137.34 33.4253C137.428 34.499 137.489 35.5728 137.556 36.6465C137.567 36.7898 137.561 36.9338 137.541 37.076C137.521 37.2838 137.429 37.4777 137.28 37.6236C137.132 37.7695 136.937 37.858 136.73 37.8737C136.589 37.888 136.446 37.8931 136.303 37.889H129.484V37.8553ZM127.115 35.6433H131.709C132.136 35.6433 132.252 35.5452 132.24 35.1065C132.24 34.3886 132.197 33.6707 132.151 32.959C132.074 31.7414 131.845 30.5386 131.469 29.3788C131.202 28.4444 130.738 27.579 130.109 26.8417C129.252 25.9213 128.213 25.4519 126.944 25.6851C126.17 25.8298 125.453 26.1987 124.884 26.7466C124.232 27.3847 123.714 28.1471 123.359 28.9892C122.555 30.928 122.097 32.9949 122.009 35.0942C121.981 35.5237 122.094 35.6249 122.533 35.6249L127.115 35.6433Z" fill="#54565A"/>
<path d="M64.7693 50.369C64.2328 50.369 63.6993 50.369 63.1628 50.369C62.7847 50.3817 62.4125 50.2728 62.1 50.0582C61.7876 49.8437 61.5512 49.5345 61.4251 49.1756C60.7971 47.5957 60.1752 46.0096 59.538 44.4327C58.9802 43.0399 58.404 41.6533 57.84 40.2604C57.59 39.6469 57.3492 39.0333 57.1083 38.4197C56.9071 37.9135 56.8035 37.8583 56.2761 37.8614C54.4043 37.8614 52.5315 37.8614 50.6576 37.8614C50.1546 37.8614 50.0479 37.9043 49.8589 38.3829C49.3254 39.7328 48.8011 41.0857 48.2676 42.4356C47.353 44.7518 46.3927 47.0373 45.5239 49.3904C45.219 50.2156 44.7648 50.5316 43.9325 50.4181C43.6521 50.3813 43.3625 50.4181 43.0759 50.4181C42.5089 50.3966 42.3534 50.1451 42.5698 49.6051C42.6765 49.3413 42.7954 49.0805 42.9052 48.8136C44.5676 44.7722 46.2311 40.7329 47.8956 36.6956C49.365 33.1338 50.8619 29.5812 52.3099 26.0103C52.4984 25.4832 52.8242 25.0169 53.2533 24.6601C53.6824 24.3034 54.1989 24.0693 54.7488 23.9824C54.889 23.9517 55.0231 23.9088 55.1603 23.8689C55.6877 23.7094 55.8036 23.737 56.0505 24.2432C56.334 24.823 56.5749 25.4212 56.8309 26.0103C57.5443 27.6465 58.2556 29.2908 58.9649 30.9434C59.9526 33.2259 60.9383 35.5094 61.922 37.7939C62.5043 39.1407 63.0987 40.4844 63.6841 41.8281L66.6625 48.6756C66.8058 49.0038 66.9673 49.326 67.0954 49.6573C67.2752 50.1021 67.1228 50.366 66.6472 50.3874C66.0375 50.4089 65.3973 50.3874 64.7754 50.3874L64.7693 50.369ZM53.4592 29.4033C53.39 29.5003 53.3288 29.6029 53.2763 29.7101C53.1635 30.0169 53.0721 30.3237 52.9532 30.6305C52.3557 32.1276 51.7571 33.6237 51.1576 35.1187C51.0143 35.4807 51.1058 35.6004 51.5051 35.6004C52.6453 35.6004 53.7854 35.6004 54.9256 35.582C55.139 35.582 55.3524 35.6065 55.5658 35.6004C55.8341 35.6004 55.9194 35.4746 55.8706 35.2169C55.8223 35.0634 55.7653 34.9129 55.6999 34.7659C55.4378 34.1217 55.1725 33.4774 54.9195 32.8301C54.5049 31.7809 54.1025 30.7286 53.7001 29.6825C53.6334 29.5793 53.5522 29.4863 53.4592 29.4064V29.4033Z" fill="#54565A"/>
<path d="M23.8884 37.7387V27.0779C23.8884 26.7036 23.8884 26.3232 23.9098 25.9489C23.9135 25.5035 24.0888 25.0769 24.3986 24.7588C24.7084 24.4407 25.1288 24.2559 25.5712 24.2432C25.7663 24.2432 25.9614 24.2432 26.1596 24.2432C30.5454 24.2432 34.9333 24.2432 39.3232 24.2432C40.189 24.2432 40.2652 24.3199 40.2652 25.1942C40.2789 25.4456 40.2789 25.6975 40.2652 25.9489C40.2644 26.0213 40.2494 26.0928 40.221 26.1593C40.1927 26.2258 40.1516 26.286 40.1 26.3365C40.0484 26.387 39.9875 26.4267 39.9206 26.4534C39.8537 26.48 39.7823 26.4931 39.7104 26.4919C39.6038 26.498 39.4969 26.498 39.3903 26.4919H29.5801C29.4551 26.4919 29.3301 26.4919 29.2051 26.4919C28.9521 26.4919 28.8332 26.6269 28.8362 26.9061C28.8362 28.5382 28.8362 30.1703 28.8362 31.8146C28.8362 32.1766 28.9185 32.2687 29.2661 32.2901C29.4795 32.2901 29.6929 32.2901 29.9062 32.2901H37.2929C37.5543 32.2866 37.8096 32.3697 38.0195 32.5266C38.2294 32.6835 38.3822 32.9055 38.4544 33.1583C38.4856 33.2417 38.5081 33.328 38.5214 33.416C38.6739 34.3732 38.5214 34.5726 37.552 34.5696H29.4703C28.9002 34.5696 28.8423 34.6463 28.8423 35.2322C28.8423 39.3227 28.8423 43.4132 28.8423 47.5036C28.8469 47.5936 28.8469 47.6837 28.8423 47.7736C28.824 48.0282 28.9642 48.1325 29.1929 48.1448C29.2996 48.1448 29.4063 48.1448 29.4977 48.1448H39.2531C39.3781 48.1448 39.5031 48.1448 39.6281 48.1448C40.0579 48.1786 40.2378 48.4516 40.0823 48.8381C39.9268 49.2247 39.6951 49.6419 39.4726 50.0407C39.4172 50.1442 39.3355 50.2311 39.2359 50.2925C39.1363 50.354 39.0223 50.3878 38.9055 50.3905C38.7653 50.3905 38.622 50.3905 38.4787 50.3905H24.9066C24.7828 50.3997 24.6585 50.3997 24.5347 50.3905C24.3642 50.3748 24.2053 50.2969 24.0879 50.1715C23.9705 50.046 23.9028 49.8817 23.8976 49.7094C23.8823 49.5499 23.8976 49.3873 23.8976 49.2247C23.8976 45.4022 23.8976 41.5786 23.8976 37.754L23.8884 37.7387Z" fill="#54565A"/>
<path d="M107.367 38.3246V49.4702C107.376 49.5958 107.376 49.7219 107.367 49.8475C107.362 50.0135 107.292 50.1709 107.173 50.2858C107.054 50.4006 106.895 50.4636 106.73 50.4611C106.462 50.4749 106.195 50.4749 105.928 50.4611C105.056 50.4611 104.181 50.4611 103.306 50.4611C102.562 50.4611 102.349 50.2463 102.349 49.5008C102.349 43.7578 102.349 38.0148 102.349 32.2718C102.349 30.5108 102.349 28.7529 102.349 26.9951C102.349 26.5594 102.3 26.495 101.861 26.4889C100.946 26.4889 100.007 26.4889 99.0807 26.4889H95.2121C95.1054 26.4889 94.9987 26.4889 94.892 26.4889C94.8334 26.4935 94.7744 26.4859 94.7188 26.4664C94.6633 26.4469 94.6124 26.4159 94.5693 26.3755C94.5263 26.3351 94.4921 26.2861 94.469 26.2317C94.4458 26.1773 94.4341 26.1186 94.4348 26.0594C94.4195 25.6115 94.4348 25.1635 94.4348 24.7156C94.4341 24.6058 94.4714 24.4992 94.5404 24.4141C94.6094 24.329 94.7057 24.2707 94.8128 24.2493C95.0354 24.1872 95.2647 24.1522 95.4956 24.145C97.6174 24.145 99.7402 24.145 101.864 24.145L114.598 24.1757C115.208 24.1757 115.326 24.3045 115.336 24.8936C115.336 25.1451 115.336 25.3967 115.336 25.6483C115.34 25.7489 115.325 25.8495 115.291 25.9441C115.257 26.0388 115.204 26.1255 115.136 26.1993C115.067 26.2731 114.985 26.3324 114.894 26.3737C114.803 26.415 114.704 26.4374 114.604 26.4398C114.462 26.4506 114.319 26.4506 114.177 26.4398H107.918C107.431 26.4398 107.358 26.5226 107.358 26.9981C107.358 30.7695 107.358 34.5389 107.358 38.3062L107.367 38.3246Z" fill="#54565A"/>
<path d="M38.7318 0.0562335C39.0366 0.709686 39.3415 1.38461 39.6463 2.06875C40.2194 3.37258 40.7834 4.68256 41.3505 5.99253C41.9602 7.41601 42.5699 8.8395 43.207 10.2599C43.9895 12.0393 44.777 13.8176 45.5696 15.5949C45.8013 16.1164 46.0391 16.6349 46.2678 17.1595C46.4385 17.5522 46.3226 17.7731 45.8989 17.8529C45.6853 17.8765 45.4704 17.8847 45.2556 17.8774H43.4814C43.1578 17.902 42.8352 17.8185 42.5635 17.6399C42.2918 17.4613 42.0862 17.1976 41.9785 16.8895C41.4907 15.7023 40.9968 14.4751 40.5091 13.2756C40.1798 12.4473 39.8567 11.6128 39.5427 10.7784C39.4177 10.444 39.1616 10.3888 38.8567 10.3888H35.8448C35.5948 10.3888 35.3418 10.3888 35.0948 10.3888C34.9334 10.3684 34.77 10.4074 34.635 10.4988C34.4999 10.5901 34.4023 10.7276 34.3601 10.8858C33.6874 12.616 33.0117 14.3442 32.3329 16.0704C32.1652 16.503 31.9792 16.9294 31.8146 17.3651C31.7604 17.5248 31.6589 17.6639 31.5237 17.7637C31.3885 17.8636 31.2262 17.9193 31.0586 17.9234C30.7185 17.9449 30.3774 17.9449 30.0373 17.9234C29.4581 17.8866 29.2843 17.5921 29.5069 17.0613C30.7771 13.9935 32.0493 10.9256 33.3236 7.85779C34.2169 5.71029 35.1375 3.59347 36.0216 1.44904C36.3752 0.583904 37.5825 -0.222941 38.7318 0.0562335ZM38.5275 8.2474C38.3415 7.77802 38.183 7.38534 38.0306 6.98958C37.7501 6.25943 37.4788 5.52622 37.1922 4.79607C37.1314 4.68615 37.0589 4.58328 36.9758 4.48928C36.8996 4.5445 36.8782 4.55371 36.8721 4.56598C36.4332 5.67347 35.9881 6.78097 35.5582 7.89153C35.4363 8.19832 35.543 8.33944 35.921 8.34557C36.6374 8.34557 37.3538 8.34557 38.055 8.34557C38.2146 8.32412 38.3725 8.29132 38.5275 8.2474Z" fill="#54565A"/>
<path d="M99.6111 13.248C99.6964 13.0792 99.794 12.9136 99.8641 12.7387C100.593 10.9563 101.312 9.16773 102.041 7.38531C102.606 5.99864 103.174 4.61299 103.745 3.22837C104.022 2.55037 104.309 1.87851 104.592 1.20358C104.7 0.914841 104.895 0.667318 105.15 0.49568C105.405 0.324041 105.707 0.236883 106.013 0.246412C106.748 0.228005 107.482 0.231073 108.217 0.246412C108.857 0.246412 109.028 0.553197 108.769 1.15143C107.763 3.44005 106.769 5.7348 105.766 8.02342C105.056 9.64018 104.333 11.2508 103.632 12.8676C102.943 14.4383 102.269 16.0121 101.587 17.5859C101.538 17.6994 101.492 17.816 101.434 17.9265C101.387 18.0358 101.302 18.1235 101.194 18.1723C101.086 18.2212 100.964 18.2276 100.852 18.1903C100.489 18.0921 100.126 17.9939 99.7727 17.8835C99.5186 17.7945 99.2871 17.6502 99.0948 17.4609C98.9024 17.2716 98.754 17.0419 98.6599 16.7883C98.1356 15.5182 97.6295 14.242 97.1021 12.9749C96.4071 11.2938 95.7059 9.61461 94.9986 7.93752L92.319 1.57172C92.2275 1.35697 92.1208 1.15143 92.0385 0.933611C91.8891 0.550129 92.0385 0.280158 92.4379 0.252548C92.8856 0.224899 93.3345 0.224899 93.7823 0.252548C93.9238 0.268967 94.0573 0.327296 94.1658 0.420142C94.2744 0.512988 94.3531 0.636172 94.392 0.774083C94.6948 1.4981 94.9936 2.22415 95.2882 2.95226C95.7577 4.10577 96.2302 5.26235 96.6967 6.41893C97.3064 7.92423 97.9161 9.43054 98.5258 10.9379C98.8368 11.711 99.1497 12.4831 99.4648 13.2541L99.6111 13.248Z" fill="#54565A"/>
<path d="M51.8221 9.03585C51.7966 10.4694 52.0579 11.8936 52.5904 13.2235C53.0599 14.3248 53.7458 15.2544 54.8676 15.7545C56.587 16.5214 58.221 16.3128 59.7453 15.2298C60.1111 14.9721 60.4404 14.6684 60.7818 14.377C61.2726 13.9567 61.5379 13.9843 61.9311 14.5089C62.0805 14.7083 62.236 14.9139 62.3671 15.1225C62.6201 15.4906 62.6079 15.6471 62.2847 15.9569C61.4219 16.7736 60.3872 17.3839 59.2575 17.7424C57.6971 18.2563 56.0303 18.3504 54.4226 18.0155C51.627 17.4663 49.6241 15.868 48.5389 13.2112C47.8727 11.4891 47.6351 9.62908 47.8468 7.79337C47.9644 6.30863 48.4383 4.87479 49.2278 3.61496C50.1559 2.12526 51.5665 1.00366 53.2214 0.439728C54.0298 0.134811 54.8886 -0.0120055 55.7517 0.00716098C56.2547 0.0225002 56.7577 -0.014314 57.2577 0.00716098C59.0983 0.0788929 60.8502 0.821388 62.1872 2.09637C62.553 2.44917 62.5683 2.67006 62.2787 3.07808C61.6415 3.97083 61.2574 4.02912 60.4068 3.29897C59.5851 2.5357 58.5512 2.04332 57.4437 1.88776C56.6246 1.76362 55.7873 1.87824 55.0309 2.21804C54.2745 2.55785 53.6307 3.10862 53.1757 3.80516C52.4166 4.88505 52.1087 6.13673 51.9563 7.42216C51.8587 7.9621 51.8557 8.50205 51.8221 9.03585Z" fill="#54565A"/>
<path d="M75.116 9.91018V17.0307C75.116 17.7639 74.8904 17.9909 74.1557 17.994C73.5125 17.994 72.8662 17.994 72.2199 17.994C71.4852 17.994 71.2565 17.7547 71.2565 17.0307C71.2565 12.5148 71.2565 7.9989 71.2565 3.48302C71.2565 3.21612 71.2718 2.94615 71.2565 2.67925C71.2565 2.26509 71.1651 2.18225 70.7444 2.18225L68.647 2.19759C67.8757 2.19759 67.1044 2.19759 66.3331 2.19759C65.7722 2.19759 65.6442 2.06874 65.635 1.49812C65.635 1.30178 65.635 1.10544 65.635 0.909095C65.6357 0.727476 65.7062 0.553179 65.8318 0.422768C65.9575 0.292358 66.1284 0.215968 66.3087 0.209624C66.3981 0.205028 66.4876 0.205028 66.577 0.209624H80.076C80.5515 0.234167 80.6704 0.356881 80.6857 0.823195C80.7284 1.96137 80.5119 2.19146 79.387 2.19146H75.622C75.116 2.19146 75.0672 2.24054 75.0672 2.73754V9.91018H75.116Z" fill="#54565A"/>
<path d="M138.062 12.3491C138.127 13.0658 138.097 13.7878 137.974 14.4966C137.483 16.5429 136.062 17.7424 134.279 18.6106C132.958 19.1978 131.587 19.662 130.182 19.9973C128.895 20.347 127.621 20.7489 126.341 21.1263C124.942 21.5433 123.58 22.0748 122.268 22.7154C121.323 23.1372 120.448 23.7044 119.677 24.3966C119.638 24.4348 119.597 24.4707 119.555 24.504C119.292 24.7034 119.085 24.642 119.094 24.3199C119.096 23.7655 119.152 23.2127 119.262 22.6694C119.847 20.0955 121.585 18.5646 123.902 17.5737C125.457 16.9529 127.051 16.4344 128.673 16.0214C130.664 15.4569 132.66 14.9231 134.63 14.3003C135.347 14.0308 136.032 13.6842 136.675 13.2664C136.968 13.064 137.229 12.8201 137.453 12.5424C137.515 12.4432 137.611 12.3694 137.723 12.334C137.834 12.2987 137.954 12.304 138.062 12.3491Z" fill="#54565A"/>
<path d="M84.5851 9.11256V1.13614C84.5774 1.01252 84.5774 0.888547 84.5851 0.764929C84.6338 0.415194 84.7863 0.234191 85.1399 0.224987C86.0179 0.20658 86.8959 0.20658 87.7738 0.224987C87.9214 0.221881 88.0648 0.274729 88.1755 0.373044C88.2862 0.471358 88.3561 0.607954 88.3714 0.755726C88.3985 0.93124 88.4087 1.10898 88.4018 1.28646C88.4018 6.53249 88.4018 11.7775 88.4018 17.0215C88.4018 17.77 88.158 17.994 87.3897 17.9971H85.5057C84.7558 17.9971 84.5912 17.8222 84.5912 17.0767V9.10029L84.5851 9.11256Z" fill="#54565A"/>
<path d="M149.034 23.6664V24.55H146.544V31.0999H145.529V24.55H143.038V23.6664H149.034Z" fill="#54565A"/>
<path d="M149.924 23.6787H151.357L153.491 29.9647L155.585 23.6787H157.006V31.1152H156.049V26.7128C156.049 26.5594 156.049 26.3079 156.049 25.9581C156.049 25.6053 156.049 25.231 156.049 24.8292L153.942 31.0998H152.951L150.817 24.8292V25.0562C150.817 25.2372 150.817 25.5164 150.817 25.8876C150.817 26.2588 150.817 26.5349 150.817 26.7128V31.0998H149.863L149.924 23.6787Z" fill="#54565A"/>
</svg>
