<svg width="17" height="17" viewBox="0 0 17 17" fill="none" xmlns="http://www.w3.org/2000/svg">
<path fill-rule="evenodd" clip-rule="evenodd" d="M8.49982 5.78003C8.87538 5.78003 9.17982 6.08447 9.17982 6.46003L9.17983 15.64C9.17984 16.0156 8.87539 16.32 8.49984 16.32C8.12428 16.32 7.81984 16.0156 7.81983 15.64L7.81982 6.46003C7.81982 6.08448 8.12427 5.78003 8.49982 5.78003Z" fill="#54565A"/>
<path fill-rule="evenodd" clip-rule="evenodd" d="M8.49984 0C8.87539 1.62125e-06 9.17984 0.304449 9.17983 0.680003L9.17982 3.06C9.17982 3.43556 8.87537 3.74 8.49982 3.74C8.12427 3.74 7.81982 3.43555 7.81982 3.06L7.81983 0.679997C7.81984 0.304443 8.12428 -1.62124e-06 8.49984 0Z" fill="#54565A"/>
<path fill-rule="evenodd" clip-rule="evenodd" d="M8.50012 3.74C7.93679 3.74 7.48012 4.19667 7.48012 4.76C7.48012 5.32334 7.93679 5.78 8.50012 5.78C9.06345 5.78 9.52012 5.32334 9.52012 4.76C9.52012 4.19667 9.06345 3.74 8.50012 3.74ZM6.12012 4.76C6.12012 3.44557 7.18568 2.38 8.50012 2.38C9.81456 2.38 10.8801 3.44557 10.8801 4.76C10.8801 6.07444 9.81456 7.14001 8.50012 7.14001C7.18568 7.14001 6.12012 6.07444 6.12012 4.76Z" fill="#54565A"/>
<path fill-rule="evenodd" clip-rule="evenodd" d="M14.6199 12.58C14.9955 12.58 15.2999 12.8844 15.2999 13.26L15.3 15.64C15.3 16.0156 14.9956 16.32 14.62 16.32C14.2445 16.32 13.94 16.0156 13.94 15.64L13.9399 13.26C13.9399 12.8845 14.2444 12.58 14.6199 12.58Z" fill="#54565A"/>
<path fill-rule="evenodd" clip-rule="evenodd" d="M14.62 0C14.9956 2.91826e-06 15.3 0.304452 15.3 0.680005L15.2999 9.86C15.2999 10.2356 14.9955 10.54 14.6199 10.54C14.2444 10.54 13.9399 10.2355 13.9399 9.85999L13.94 0.679995C13.94 0.304441 14.2445 -2.91822e-06 14.62 0Z" fill="#54565A"/>
<path fill-rule="evenodd" clip-rule="evenodd" d="M14.6202 10.54C14.0569 10.54 13.6002 10.9967 13.6002 11.56C13.6002 12.1233 14.0569 12.58 14.6202 12.58C15.1836 12.58 15.6402 12.1233 15.6402 11.56C15.6402 10.9967 15.1836 10.54 14.6202 10.54ZM12.2402 11.56C12.2402 10.2456 13.3058 9.17999 14.6202 9.17999C15.9347 9.17999 17.0002 10.2456 17.0002 11.56C17.0002 12.8744 15.9347 13.94 14.6202 13.94C13.3058 13.94 12.2402 12.8744 12.2402 11.56Z" fill="#54565A"/>
<path fill-rule="evenodd" clip-rule="evenodd" d="M2.37976 9.85999C2.75532 9.85999 3.05976 10.1644 3.05976 10.54L3.05971 15.64C3.0597 16.0155 2.75525 16.32 2.3797 16.32C2.00415 16.32 1.6997 16.0155 1.69971 15.64L1.69976 10.54C1.69976 10.1644 2.00421 9.85998 2.37976 9.85999Z" fill="#54565A"/>
<path fill-rule="evenodd" clip-rule="evenodd" d="M2.3797 0C2.75526 -2.91822e-06 3.0597 0.304441 3.05971 0.679995L3.05976 7.14C3.05976 7.51555 2.75532 7.82 2.37976 7.82C2.00421 7.82 1.69976 7.51556 1.69976 7.14001L1.69971 0.680005C1.6997 0.304452 2.00415 2.91826e-06 2.3797 0Z" fill="#54565A"/>
<path fill-rule="evenodd" clip-rule="evenodd" d="M2.38 7.82002C1.81667 7.82002 1.36 8.27669 1.36 8.84002C1.36 9.40335 1.81667 9.86002 2.38 9.86002C2.94333 9.86002 3.4 9.40335 3.4 8.84002C3.4 8.27669 2.94333 7.82002 2.38 7.82002ZM0 8.84002C0 7.52558 1.06556 6.46002 2.38 6.46002C3.69444 6.46002 4.76 7.52558 4.76 8.84002C4.76 10.1545 3.69444 11.22 2.38 11.22C1.06556 11.22 0 10.1545 0 8.84002Z" fill="#54565A"/>
</svg>
