<svg width="25" height="30" viewBox="0 0 25 30" fill="none" xmlns="http://www.w3.org/2000/svg">
<path d="M24.0061 25.9325L22.2883 6.58896C22.2515 6.15951 21.8896 5.83436 21.4663 5.83436H17.9325C17.8834 2.60736 15.2454 0 12.0061 0C8.76687 0 6.12883 2.60736 6.07975 5.83436H2.54601C2.11656 5.83436 1.76074 6.15951 1.72393 6.58896L0.00613511 25.9325C0.00613511 25.9571 0 25.9816 0 26.0061C0 28.2086 2.0184 30 4.50307 30H19.5092C21.9939 30 24.0123 28.2086 24.0123 26.0061C24.0123 25.9816 24.0123 25.9571 24.0061 25.9325ZM12.0061 1.65644C14.3313 1.65644 16.227 3.52147 16.2761 5.83436H7.7362C7.78528 3.52147 9.68098 1.65644 12.0061 1.65644ZM19.5092 28.3436H4.50307C2.94479 28.3436 1.68098 27.3129 1.65644 26.0429L3.30061 7.49693H6.07362V10.0123C6.07362 10.4724 6.44172 10.8405 6.90184 10.8405C7.36196 10.8405 7.73006 10.4724 7.73006 10.0123V7.49693H16.2761V10.0123C16.2761 10.4724 16.6442 10.8405 17.1043 10.8405C17.5644 10.8405 17.9325 10.4724 17.9325 10.0123V7.49693H20.7055L22.3558 26.0429C22.3313 27.3129 21.0614 28.3436 19.5092 28.3436Z" fill="#54565A"/>
</svg>
