<svg width="31" height="30" viewBox="0 0 31 30" fill="none" xmlns="http://www.w3.org/2000/svg">
<path d="M21.1048 22.5873L28.2111 29.6937C28.4133 29.8959 28.6829 30 28.9524 30C29.222 30 29.4915 29.8959 29.6937 29.6937C30.1041 29.2832 30.1041 28.6155 29.6937 28.205L22.5873 21.0986C24.4864 18.8626 25.632 15.971 25.632 12.816C25.632 5.74638 19.8795 0 12.816 0C5.7525 0 0 5.74644 0 12.8161C0 19.8858 5.7525 25.6321 12.8221 25.6321C15.9771 25.6321 18.8687 24.4864 21.1048 22.5873ZM2.10129 12.8161C2.10129 6.90435 6.91035 2.10141 12.816 2.10141C18.7217 2.10141 23.5307 6.91048 23.5307 12.8161C23.5307 18.7218 18.7217 23.5309 12.816 23.5309C6.91035 23.5309 2.10129 18.7217 2.10129 12.8161Z" fill="#54565A"/>
</svg>
