<svg width="42" height="35" viewBox="0 0 42 35" fill="none" xmlns="http://www.w3.org/2000/svg">
<path d="M21.1928 34.5C20.9403 34.5 20.6878 34.4281 20.4606 34.3083C19.6526 33.901 0.740173 23.6948 0.740173 10.7812C0.740173 7.90625 1.92693 5.19896 4.0732 3.1625C6.21947 1.12604 9.07274 0 12.1028 0C15.7388 0 19.0718 1.62917 21.1928 4.3125C24.2481 0.455208 29.7779 -1.10208 34.6512 0.838542C38.8932 2.51562 41.6455 6.42083 41.6455 10.7812C41.6455 23.6948 22.7331 33.901 21.9251 34.3083C21.6978 34.4281 21.4453 34.5 21.1928 34.5ZM12.1028 2.875C9.88075 2.875 7.78498 3.68958 6.21947 5.19896C4.62871 6.68437 3.7702 8.67292 3.7702 10.7812C3.7702 20.7 17.7841 29.4208 21.1928 31.3854C24.6016 29.4208 38.6155 20.676 38.6155 10.7812C38.6155 7.57083 36.5955 4.71979 33.4897 3.47396C29.2477 1.79688 24.3491 3.68958 22.5816 7.71458C22.3543 8.24167 21.7988 8.60104 21.1928 8.60104C20.5868 8.60104 20.0313 8.24167 19.8041 7.71458C18.4911 4.79167 15.4863 2.875 12.1028 2.875Z" fill="#54565A"/>
</svg>
