<svg width="140" height="134" viewBox="0 0 140 134" fill="none" xmlns="http://www.w3.org/2000/svg">
<path d="M19.3931 114.94C19.6998 114.94 19.9931 115.06 20.2731 115.3C20.5531 115.527 20.6931 115.84 20.6931 116.24C20.6931 116.36 20.6731 116.493 20.6331 116.64L16.6931 128.24C16.6131 128.48 16.4664 128.667 16.2531 128.8C16.0531 128.92 15.8398 128.987 15.6131 129C15.3864 129 15.1598 128.933 14.9331 128.8C14.7198 128.667 14.5531 128.473 14.4331 128.22L11.4731 121.5L11.6531 121.62L8.73311 128.22C8.61311 128.473 8.43977 128.667 8.21311 128.8C7.99977 128.933 7.77977 129 7.55311 129C7.33977 128.987 7.12644 128.92 6.91311 128.8C6.69977 128.667 6.55311 128.48 6.47311 128.24L2.53311 116.64C2.49311 116.493 2.47311 116.36 2.47311 116.24C2.47311 115.84 2.61311 115.527 2.89311 115.3C3.18644 115.06 3.48644 114.94 3.79311 114.94C4.04644 114.94 4.27977 115.007 4.49311 115.14C4.71977 115.273 4.87311 115.467 4.95311 115.72L8.13311 125.36L7.69311 125.34L10.5331 118.52C10.6398 118.28 10.7931 118.093 10.9931 117.96C11.1931 117.813 11.4198 117.747 11.6731 117.76C11.9264 117.747 12.1531 117.813 12.3531 117.96C12.5531 118.093 12.6998 118.28 12.7931 118.52L15.3931 125.04L15.0731 125.24L18.2131 115.72C18.2931 115.467 18.4464 115.273 18.6731 115.14C18.8998 115.007 19.1398 114.94 19.3931 114.94ZM27.2111 118.14L22.8911 128.3C22.7977 128.553 22.6511 128.753 22.4511 128.9C22.2644 129.033 22.0577 129.1 21.8311 129.1C21.4711 129.1 21.2044 129 21.0311 128.8C20.8577 128.6 20.7711 128.353 20.7711 128.06C20.7711 127.94 20.7911 127.813 20.8311 127.68L25.8111 115.72C25.9177 115.453 26.0777 115.247 26.2911 115.1C26.5177 114.953 26.7577 114.893 27.0111 114.92C27.2511 114.92 27.4711 114.993 27.6711 115.14C27.8844 115.273 28.0377 115.467 28.1311 115.72L33.0511 127.44C33.1177 127.613 33.1511 127.773 33.1511 127.92C33.1511 128.28 33.0311 128.567 32.7911 128.78C32.5644 128.993 32.3111 129.1 32.0311 129.1C31.7911 129.1 31.5711 129.027 31.3711 128.88C31.1844 128.733 31.0377 128.533 30.9311 128.28L26.6311 118.26L27.2111 118.14ZM23.5111 125.86L24.6111 123.56H30.0111L30.3911 125.86H23.5111ZM38.5884 129C38.2151 129 37.9084 128.887 37.6684 128.66C37.4284 128.42 37.3084 128.127 37.3084 127.78V116.18H39.9084V127.78C39.9084 128.127 39.7818 128.42 39.5284 128.66C39.2884 128.887 38.9751 129 38.5884 129ZM34.1684 117.3C33.8218 117.3 33.5284 117.193 33.2884 116.98C33.0618 116.767 32.9484 116.487 32.9484 116.14C32.9484 115.793 33.0618 115.52 33.2884 115.32C33.5284 115.107 33.8218 115 34.1684 115H43.0484C43.3951 115 43.6818 115.107 43.9084 115.32C44.1484 115.533 44.2684 115.813 44.2684 116.16C44.2684 116.507 44.1484 116.787 43.9084 117C43.6818 117.2 43.3951 117.3 43.0484 117.3H34.1684ZM55.7773 115.68C56.124 115.853 56.324 116.127 56.3773 116.5C56.444 116.873 56.3507 117.213 56.0973 117.52C55.924 117.76 55.6973 117.893 55.4173 117.92C55.1507 117.947 54.8773 117.893 54.5973 117.76C54.2773 117.613 53.9373 117.5 53.5773 117.42C53.2307 117.34 52.864 117.3 52.4773 117.3C51.7573 117.3 51.1107 117.413 50.5373 117.64C49.9773 117.867 49.4973 118.193 49.0973 118.62C48.6973 119.033 48.3907 119.527 48.1773 120.1C47.9773 120.673 47.8773 121.307 47.8773 122C47.8773 122.813 47.9907 123.52 48.2173 124.12C48.4573 124.72 48.784 125.22 49.1973 125.62C49.6107 126.02 50.0973 126.32 50.6573 126.52C51.2173 126.707 51.824 126.8 52.4773 126.8C52.8373 126.8 53.1973 126.767 53.5573 126.7C53.9173 126.633 54.264 126.513 54.5973 126.34C54.8773 126.207 55.1507 126.16 55.4173 126.2C55.6973 126.24 55.9307 126.38 56.1173 126.62C56.384 126.953 56.4773 127.3 56.3973 127.66C56.3307 128.007 56.1307 128.26 55.7973 128.42C55.4507 128.593 55.0907 128.74 54.7173 128.86C54.3573 128.967 53.9907 129.047 53.6173 129.1C53.244 129.167 52.864 129.2 52.4773 129.2C51.5173 129.2 50.604 129.047 49.7373 128.74C48.884 128.433 48.1173 127.98 47.4373 127.38C46.7707 126.78 46.244 126.033 45.8573 125.14C45.4707 124.233 45.2773 123.187 45.2773 122C45.2773 120.973 45.4507 120.027 45.7973 119.16C46.1573 118.293 46.6573 117.547 47.2973 116.92C47.9507 116.28 48.7173 115.787 49.5973 115.44C50.4773 115.08 51.4373 114.9 52.4773 114.9C53.064 114.9 53.6373 114.967 54.1973 115.1C54.7573 115.233 55.284 115.427 55.7773 115.68ZM59.7964 115C60.1164 115 60.3964 115.12 60.6364 115.36C60.8897 115.587 61.0164 115.873 61.0164 116.22V127.78C61.0164 128.127 60.8897 128.42 60.6364 128.66C60.3831 128.887 60.0897 129 59.7564 129C59.3831 129 59.0831 128.887 58.8564 128.66C58.6297 128.42 58.5164 128.127 58.5164 127.78V116.22C58.5164 115.873 58.6364 115.587 58.8764 115.36C59.1164 115.12 59.4231 115 59.7964 115ZM68.6564 115C69.0297 115 69.3297 115.12 69.5564 115.36C69.7831 115.587 69.8964 115.873 69.8964 116.22V127.78C69.8964 128.127 69.7764 128.42 69.5364 128.66C69.3097 128.887 69.0031 129 68.6164 129C68.2964 129 68.0097 128.887 67.7564 128.66C67.5164 128.42 67.3964 128.127 67.3964 127.78V116.22C67.3964 115.873 67.5231 115.587 67.7764 115.36C68.0297 115.12 68.3231 115 68.6564 115ZM59.7364 120.82H68.6564V123.12H59.7364V120.82ZM88.7169 114.96C89.0502 114.96 89.3369 115.073 89.5769 115.3C89.8302 115.513 89.9569 115.787 89.9569 116.12C89.9569 116.293 89.9169 116.473 89.8369 116.66L84.8969 128.22C84.7769 128.487 84.6035 128.687 84.3769 128.82C84.1635 128.94 83.9435 129 83.7169 129C83.5035 128.987 83.2969 128.92 83.0969 128.8C82.8969 128.667 82.7435 128.48 82.6369 128.24L77.6969 116.64C77.6569 116.56 77.6302 116.48 77.6169 116.4C77.6035 116.307 77.5969 116.22 77.5969 116.14C77.5969 115.753 77.7369 115.46 78.0169 115.26C78.2969 115.047 78.5635 114.94 78.8169 114.94C79.3235 114.94 79.6902 115.2 79.9169 115.72L84.2969 126.02L83.5969 126.04L87.6169 115.72C87.8435 115.213 88.2102 114.96 88.7169 114.96ZM94.5515 127.78C94.5515 128.127 94.4249 128.42 94.1715 128.66C93.9182 128.887 93.6249 129 93.2915 129C92.9182 129 92.6182 128.887 92.3915 128.66C92.1649 128.42 92.0515 128.127 92.0515 127.78V116.22C92.0515 115.873 92.1715 115.587 92.4115 115.36C92.6515 115.12 92.9582 115 93.3315 115C93.6515 115 93.9315 115.12 94.1715 115.36C94.4249 115.587 94.5515 115.873 94.5515 116.22V127.78ZM103.559 115C104.519 115 105.373 115.18 106.119 115.54C106.866 115.9 107.493 116.407 107.999 117.06C108.519 117.7 108.906 118.447 109.159 119.3C109.426 120.14 109.559 121.04 109.559 122C109.559 123.293 109.326 124.473 108.859 125.54C108.393 126.593 107.713 127.433 106.819 128.06C105.939 128.687 104.853 129 103.559 129H98.7794C98.4327 129 98.1394 128.887 97.8994 128.66C97.6727 128.42 97.5594 128.127 97.5594 127.78V116.22C97.5594 115.873 97.6727 115.587 97.8994 115.36C98.1394 115.12 98.4327 115 98.7794 115H103.559ZM103.359 126.7C104.199 126.7 104.886 126.487 105.419 126.06C105.953 125.62 106.339 125.047 106.579 124.34C106.833 123.62 106.959 122.84 106.959 122C106.959 121.373 106.886 120.78 106.739 120.22C106.606 119.647 106.393 119.147 106.099 118.72C105.806 118.28 105.433 117.933 104.979 117.68C104.526 117.427 103.986 117.3 103.359 117.3H99.8594L100.059 117.12V126.92L99.9394 126.7H103.359ZM113.076 115H119.776C120.123 115 120.41 115.113 120.636 115.34C120.876 115.553 120.996 115.833 120.996 116.18C120.996 116.513 120.876 116.787 120.636 117C120.41 117.2 120.123 117.3 119.776 117.3H114.176L114.356 116.96V120.86L114.196 120.7H118.876C119.223 120.7 119.51 120.813 119.736 121.04C119.976 121.253 120.096 121.533 120.096 121.88C120.096 122.213 119.976 122.487 119.736 122.7C119.51 122.9 119.223 123 118.876 123H114.256L114.356 122.84V126.88L114.196 126.7H119.776C120.123 126.7 120.41 126.82 120.636 127.06C120.876 127.287 120.996 127.553 120.996 127.86C120.996 128.193 120.876 128.467 120.636 128.68C120.41 128.893 120.123 129 119.776 129H113.076C112.73 129 112.436 128.887 112.196 128.66C111.97 128.42 111.856 128.127 111.856 127.78V116.22C111.856 115.873 111.97 115.587 112.196 115.36C112.436 115.12 112.73 115 113.076 115ZM136.182 122C136.182 123 136.015 123.933 135.682 124.8C135.348 125.667 134.875 126.433 134.262 127.1C133.662 127.753 132.942 128.267 132.102 128.64C131.275 129.013 130.368 129.2 129.382 129.2C128.395 129.2 127.488 129.013 126.662 128.64C125.835 128.267 125.115 127.753 124.502 127.1C123.902 126.433 123.435 125.667 123.102 124.8C122.768 123.933 122.602 123 122.602 122C122.602 121 122.768 120.067 123.102 119.2C123.435 118.333 123.902 117.573 124.502 116.92C125.115 116.253 125.835 115.733 126.662 115.36C127.488 114.987 128.395 114.8 129.382 114.8C130.368 114.8 131.275 114.987 132.102 115.36C132.942 115.733 133.662 116.253 134.262 116.92C134.875 117.573 135.348 118.333 135.682 119.2C136.015 120.067 136.182 121 136.182 122ZM133.582 122C133.582 121.107 133.402 120.3 133.042 119.58C132.682 118.847 132.188 118.267 131.562 117.84C130.935 117.413 130.208 117.2 129.382 117.2C128.555 117.2 127.828 117.413 127.202 117.84C126.575 118.267 126.082 118.84 125.722 119.56C125.375 120.28 125.202 121.093 125.202 122C125.202 122.893 125.375 123.707 125.722 124.44C126.082 125.16 126.575 125.733 127.202 126.16C127.828 126.587 128.555 126.8 129.382 126.8C130.208 126.8 130.935 126.587 131.562 126.16C132.188 125.733 132.682 125.16 133.042 124.44C133.402 123.707 133.582 122.893 133.582 122Z" fill="white"/>
<path d="M69.5 0C43.3069 0 22 21.5332 22 48C22 74.4668 43.3069 96 69.5 96C95.6931 96 117 74.4668 117 48C117 21.5332 95.6931 0 69.5 0ZM69.5 92.0001C45.491 92.0001 25.9583 72.2617 25.9583 48C25.9583 23.7383 45.491 3.99994 69.5 3.99994C93.509 3.99994 113.042 23.7383 113.042 48C113.042 72.2617 93.509 92.0001 69.5 92.0001Z" fill="white"/>
<path d="M88.3833 46.3183L60.675 28.3183C60.0681 27.918 59.2834 27.8964 58.6572 28.244C58.0193 28.5956 57.625 29.2676 57.625 30V65.9999C57.625 66.7323 58.0193 67.4043 58.6572 67.7559C58.9509 67.9181 59.2795 68 59.6042 68C59.9753 68 60.3503 67.8944 60.675 67.6816L88.3833 49.6816C88.9477 49.3145 89.2917 48.6796 89.2917 48C89.2917 47.3203 88.9477 46.6856 88.3833 46.3183ZM61.5833 62.3358V33.6641L83.6518 48L61.5833 62.3358Z" fill="white"/>
</svg>
